HIERARCHY
ROOT Hips
{
	OFFSET 53.875599 15.360985 95.610001
	CHANNELS 6 Xposition Yposition Zposition Xrotation Yrotation Zrotation
	JOINT spine
	{
		OFFSET 0.000000 -0.467661 8.132492
		CHANNELS 3 Xrotation Yrotation Zrotation
		JOINT spine1
		{
			OFFSET 0.000000 -0.000001 10.349800
			CHANNELS 3 Xrotation Yrotation Zrotation
			JOINT spine2
			{
				OFFSET 0.000000 -0.000002 9.916992
				CHANNELS 3 Xrotation Yrotation Zrotation
				JOINT Neck
				{
					OFFSET 0.000000 -1.213904 25.461006
					CHANNELS 3 Xrotation Yrotation Zrotation
					JOINT Head
					{
						OFFSET 0.000000 -0.000001 7.692444
						CHANNELS 3 Xrotation Yrotation Zrotation
						End Site
						{
							OFFSET 0.000000 6.140628 18.619995
						}
					}
				}
				JOINT RightShoulder
				{
					OFFSET -4.175751 0.581443 10.709602
					CHANNELS 3 Xrotation Yrotation Zrotation
					JOINT RightArm
					{
						OFFSET 0.000000 -0.000002 14.046600
						CHANNELS 3 Xrotation Yrotation Zrotation
						JOINT RightArmRoll
						{
							OFFSET 0.000000 -0.000002 7.090973
							CHANNELS 3 Xrotation Yrotation Zrotation
							JOINT RightForeArm
							{
								OFFSET 0.000000 -0.000003 20.653503
								CHANNELS 3 Xrotation Yrotation Zrotation
								JOINT RightForeArmRoll
								{
									OFFSET 0.000000 -0.000002 7.957184
									CHANNELS 3 Xrotation Yrotation Zrotation
									JOINT RightHand
									{
										OFFSET 0.000000 -0.000002 15.968307
										CHANNELS 3 Xrotation Yrotation Zrotation
										End Site
										{
											OFFSET 0.000000 0.000000 0.100006
										}
									}
								}
							}
						}
					}
				}
				JOINT LeftShoulder
				{
					OFFSET 4.175751 0.581443 10.709602
					CHANNELS 3 Xrotation Yrotation Zrotation
					JOINT LeftArm
					{
						OFFSET 0.000000 -0.000002 14.046600
						CHANNELS 3 Xrotation Yrotation Zrotation
						JOINT LeftArmRoll
						{
							OFFSET 0.000000 -0.000002 7.090988
							CHANNELS 3 Xrotation Yrotation Zrotation
							JOINT LeftForeArm
							{
								OFFSET 0.000000 -0.000003 20.653503
								CHANNELS 3 Xrotation Yrotation Zrotation
								JOINT LeftForeArmRoll
								{
									OFFSET 0.000000 -0.000002 7.957184
									CHANNELS 3 Xrotation Yrotation Zrotation
									JOINT LeftHand
									{
										OFFSET 0.000000 -0.000002 15.968292
										CHANNELS 3 Xrotation Yrotation Zrotation
										End Site
										{
											OFFSET 0.000000 0.000000 0.100006
										}
									}
								}
							}
						}
					}
				}
			}
		}
	}
	JOINT RightUpLeg
	{
		OFFSET -7.208340 1.108841 -1.321823
		CHANNELS 3 Xrotation Yrotation Zrotation
		JOINT RightUpLegRoll
		{
			OFFSET 0.000000 -0.000004 18.723801
			CHANNELS 3 Xrotation Yrotation Zrotation
			JOINT RightLeg
			{
				OFFSET 0.000000 0.000004 -23.186600
				CHANNELS 3 Xrotation Yrotation Zrotation
				JOINT RightLegRoll
				{
					OFFSET 0.000000 -0.000004 23.262398
					CHANNELS 3 Xrotation Yrotation Zrotation
					JOINT RightFoot
					{
						OFFSET 0.000000 -0.000002 19.362099
						CHANNELS 3 Xrotation Yrotation Zrotation
						JOINT RightToeBase
						{
							OFFSET 0.000000 -0.000004 16.185699
							CHANNELS 3 Xrotation Yrotation Zrotation
							End Site
							{
								OFFSET 0.006859 0.903522 7.838623
							}
						}
					}
				}
			}
		}
	}
	JOINT LeftUpLeg
	{
		OFFSET 7.208340 1.108841 -1.321823
		CHANNELS 3 Xrotation Yrotation Zrotation
		JOINT LeftUpLegRoll
		{
			OFFSET 0.000000 -0.000004 18.723900
			CHANNELS 3 Xrotation Yrotation Zrotation
			JOINT LeftLeg
			{
				OFFSET 0.000000 -0.000004 23.186501
				CHANNELS 3 Xrotation Yrotation Zrotation
				JOINT LeftLegRoll
				{
					OFFSET 0.000000 -0.000004 23.477509
					CHANNELS 3 Xrotation Yrotation Zrotation
					JOINT LeftFoot
					{
						OFFSET 0.000000 -0.000002 19.147003
						CHANNELS 3 Xrotation Yrotation Zrotation
						JOINT LeftToeBase
						{
							OFFSET 0.000000 -0.000004 16.185699
							CHANNELS 3 Xrotation Yrotation Zrotation
							End Site
							{
								OFFSET -0.030746 0.903522 7.838623
							}
						}
					}
				}
			}
		}
	}
}
MOTION
Frames: 11
Frame Time: 0.041667
49.855598 7.470172 95.887085 -2.937542 2.407372 9.766879 -0.416043 -0.446424 -0.666026 3.165816 -0.894348 -1.330677 4.810789 -0.910224 -1.319878 11.100122 -36.193705 -7.053705 -3.596362 16.371730 -6.111720 -39.328048 -59.490593 -46.355094 -111.870296 -134.650322 -142.911258 0.000001 0.000000 -0.000003 126.262891 6.085174 -28.418305 -0.000002 0.000008 -3.000000 -5.000225 -7.998911 0.000140 2.516421 38.323706 -6.191949 -82.480237 176.304818 87.949990 -0.000001 0.000000 0.000006 51.599876 3.398568 1.196269 -0.000001 -0.000005 3.000116 -5.000254 7.998900 -0.000124 -6.843152 -177.144453 0.915060 -179.999991 0.000004 -0.815001 171.408993 -2.211931 -0.524078 0.000001 0.000002 -0.005032 67.599782 5.557723 5.555503 25.456962 -7.355615 0.000000 3.864614 174.390698 -2.532044 -0.000005 -0.000004 -1.072829 -14.651980 1.961367 0.642487 -0.000006 -0.000003 -0.512552 78.339196 -6.619273 -2.237459 26.184299 7.351906 -1.091905 
49.872608 7.475281 95.886696 -2.948015 2.430947 9.748812 -0.404523 -0.442655 -0.674376 3.188823 -0.886969 -1.347297 4.833802 -0.903045 -1.336575 10.932924 -36.575181 -7.074091 -3.479127 16.704582 -6.095756 -39.838851 -59.578668 -46.938668 -112.231490 -134.574439 -143.396448 -0.000001 0.000003 -0.000005 126.521318 6.118601 -28.700568 -0.000002 0.000006 -3.000001 -5.000223 -7.998912 0.000141 2.670691 38.016891 -6.449700 -82.780465 176.945585 87.752365 -0.000001 0.000002 0.000007 50.435678 3.396601 1.233899 -0.000000 -0.000005 3.000119 -5.000253 7.998902 -0.000124 -6.815773 -177.167129 0.905951 -179.999991 0.000005 -0.814999 171.452037 -2.211180 -0.521271 0.000001 0.000002 -0.005694 67.584169 5.560650 5.547971 25.456959 -7.355617 0.000001 3.869002 174.371793 -2.549127 -0.000005 -0.000004 -1.072099 -14.664129 1.966154 0.643725 -0.000004 -0.000003 -0.512458 78.345938 -6.618957 -2.237531 26.185002 7.351871 -1.093057 
49.865501 7.475780 95.889793 -2.957296 2.455434 9.733260 -0.393212 -0.439616 -0.682693 3.211420 -0.881052 -1.363847 4.856386 -0.897327 -1.353203 10.759115 -36.948468 -7.099878 -3.357470 17.032217 -6.083049 -40.345764 -59.657024 -47.518606 -112.582534 -134.500495 -143.873646 0.000000 0.000000 -0.000003 126.776015 6.152540 -28.981995 -0.000000 0.000006 -3.000000 -5.000229 -7.998915 0.000140 2.822683 37.707839 -6.705825 -83.074819 177.587842 87.548832 -0.000001 0.000000 0.000004 49.256097 3.381730 1.278746 -0.000002 -0.000006 3.000116 -5.000256 7.998903 -0.000121 -6.789384 -177.190803 0.896359 -179.999991 0.000005 -0.815998 171.495217 -2.210444 -0.519456 0.000001 0.000002 -0.006345 67.569040 5.563867 5.539675 25.456959 -7.355617 0.000001 3.871150 174.350824 -2.566219 -0.000005 -0.000004 -1.071299 -14.676881 1.970547 0.644975 -0.000002 -0.000003 -0.512386 78.353137 -6.618642 -2.237679 26.185511 7.351843 -1.093903 
49.886204 7.478542 95.895393 -2.965181 2.480983 9.720161 -0.382213 -0.437537 -0.690938 3.233380 -0.877056 -1.380264 4.878345 -0.893528 -1.369672 10.579087 -37.310598 -7.131070 -3.231549 17.352432 -6.073749 -40.845996 -59.723686 -48.091792 -112.921359 -134.427467 -144.341322 -0.000000 0.000002 -0.000004 127.027093 6.186432 -29.261371 -0.000002 0.000006 -2.999998 -5.000226 -7.998910 0.000140 2.973195 37.397461 -6.961214 -83.362793 178.229688 87.338749 -0.000001 0.000001 0.000005 48.062235 3.352479 1.331019 -0.000001 -0.000006 3.000112 -5.000257 7.998904 -0.000128 -6.764400 -177.215487 0.886264 -179.999991 0.000005 -0.816994 171.538261 -2.209705 -0.516653 0.000001 0.000002 -0.006982 67.554485 5.567391 5.530608 25.456959 -7.355616 0.000000 3.870749 174.329882 -2.583080 -0.000005 -0.000004 -1.070430 -14.690521 1.974469 0.646241 -0.000003 -0.000003 -0.512343 78.361025 -6.618309 -2.237683 26.185711 7.351811 -1.094399 
49.891403 7.488382 95.898399 -2.971430 2.507733 9.709461 -0.371638 -0.436649 -0.699078 3.254471 -0.875438 -1.396483 4.899426 -0.892104 -1.385904 10.393236 -37.658610 -7.167706 -3.101492 17.663008 -6.067989 -41.336674 -59.776921 -48.655286 -113.245834 -134.354425 -144.798125 0.000001 0.000000 -0.000003 127.274305 6.219636 -29.541446 0.000000 0.000007 -2.999999 -5.000219 -7.998912 0.000139 3.123033 37.087032 -7.216800 -83.643945 178.869349 87.121330 -0.000001 -0.000000 0.000009 46.855436 3.307263 1.390885 -0.000002 -0.000005 3.000110 -5.000253 7.998905 -0.000124 -6.741221 -177.240185 0.875482 -179.999991 0.000005 -0.818006 171.580950 -2.207976 -0.513718 0.000001 0.000002 -0.007599 67.540647 5.571269 5.520781 25.456959 -7.355614 0.000000 3.867520 174.307903 -2.599660 -0.000005 -0.000004 -1.069469 -14.705061 1.977858 0.647527 -0.000003 -0.000003 -0.512331 78.369502 -6.617994 -2.237855 26.185803 7.351771 -1.094534 
49.909000 7.490840 95.893990 -2.975814 2.535836 9.701131 -0.361597 -0.437179 -0.707079 3.274474 -0.876654 -1.412407 4.919420 -0.893511 -1.401807 10.202026 -37.989799 -7.209498 -2.967482 17.961938 -6.065868 -41.814490 -59.814992 -49.205731 -113.553493 -134.280481 -145.242156 -0.000001 0.000000 -0.000002 127.517228 6.253953 -29.819838 -0.000002 0.000007 -3.000001 -5.000224 -7.998911 0.000139 3.272973 36.777543 -7.473448 -83.917699 179.505144 86.894411 -0.000000 0.000001 0.000006 45.637135 3.244468 1.458284 -0.000000 -0.000007 3.000110 -5.000254 7.998905 -0.000120 -6.720247 -177.265894 0.864091 -179.999991 0.000005 -0.819003 171.622956 -2.207216 -0.511952 0.000001 0.000002 -0.008190 67.527936 5.575574 5.509780 25.456959 -7.355616 0.000001 3.861155 174.284926 -2.615847 -0.000005 -0.000004 -1.068430 -14.720497 1.980649 0.648829 -0.000005 -0.000003 -0.512355 78.378880 -6.617648 -2.237977 26.185499 7.351747 -1.094274 
49.940205 7.491377 95.893204 -2.978118 2.565430 9.695101 -0.352203 -0.439360 -0.714902 3.293160 -0.881163 -1.427980 4.938109 -0.898205 -1.417328 10.005921 -38.301211 -7.256255 -2.829696 18.247001 -6.067437 -42.276272 -59.836057 -49.739787 -113.842403 -134.204611 -145.672034 0.000001 0.000005 -0.000005 127.755792 6.288159 -30.097102 -0.000004 0.000008 -3.000000 -5.000223 -7.998912 0.000140 3.423813 36.470068 -7.732060 -84.183646 180.135106 86.658660 -0.000001 0.000001 0.000009 44.408514 3.162410 1.533086 -0.000003 -0.000006 3.000110 -5.000257 7.998900 -0.000122 -6.701889 -177.292600 0.852055 -179.999991 0.000005 -0.820000 171.663991 -2.206460 -0.509215 0.000001 0.000002 -0.008754 67.516270 5.580393 5.497530 25.456960 -7.355616 0.000001 3.851358 174.260898 -2.631525 -0.000005 -0.000005 -1.067289 -14.737028 1.982772 0.650154 -0.000006 -0.000003 -0.512415 78.389091 -6.617334 -2.238043 26.184992 7.351709 -1.093606 
49.951000 7.495885 95.895905 -2.978099 2.596679 9.691336 -0.343567 -0.443418 -0.722507 3.310310 -0.889418 -1.443118 4.955251 -0.906643 -1.432365 9.805448 -38.589869 -7.307788 -2.688310 18.516296 -6.072725 -42.718670 -59.838536 -50.254012 -114.110318 -134.125845 -146.086217 0.000000 0.000000 -0.000005 127.989740 6.322876 -30.373452 -0.000008 0.000006 -3.000000 -5.000225 -7.998915 0.000140 3.576312 36.165780 -7.993512 -84.441396 180.757528 86.411879 -0.000002 0.000001 0.000002 43.171071 3.059382 1.615020 -0.000003 -0.000006 3.000106 -5.000257 7.998904 -0.000122 -6.686529 -177.320317 0.839317 -179.999991 0.000005 -0.820000 171.703798 -2.205697 -0.506542 0.000001 0.000002 -0.009282 67.505970 5.585712 5.484110 25.456960 -7.355616 0.000001 3.837837 174.235872 -2.646589 -0.000005 -0.000004 -1.066041 -14.754752 1.984168 0.651506 -0.000006 -0.000003 -0.512515 78.400436 -6.616988 -2.238149 26.184282 7.351667 -1.092522 
49.965000 7.501166 95.902489 -2.975454 2.629381 9.691972 -0.335721 -0.449312 -0.729839 3.325862 -0.901336 -1.457713 4.970801 -0.918734 -1.446817 9.598307 -38.857295 -7.365982 -2.542723 18.770200 -6.083173 -43.142115 -59.820873 -50.748866 -114.355993 -134.042490 -146.483338 0.000000 0.000001 -0.000001 128.219562 6.358822 -30.649135 -0.000006 0.000006 -2.999998 -5.000227 -7.998911 0.000140 3.732640 35.864613 -8.260662 -84.691791 181.380632 86.155002 -0.000002 0.000000 0.000006 41.908695 2.934372 1.699270 0.000001 -0.000003 3.000099 -5.000248 7.998907 -0.000120 -6.673748 -177.349058 0.826091 -179.999991 0.000005 -0.820997 171.743467 -2.205919 -0.504019 0.000001 0.000002 -0.009808 67.496380 5.591428 5.469741 25.456962 -7.355617 0.000001 3.819530 174.209794 -2.660713 -0.000005 -0.000004 -1.064701 -14.773967 1.984602 0.652884 -0.000004 -0.000003 -0.512668 78.412716 -6.616642 -2.238295 26.183067 7.351640 -1.090878 
49.978699 7.503580 95.900688 -2.970191 2.663268 9.698678 -0.328564 -0.456743 -0.736898 3.340018 -0.916321 -1.471747 4.984955 -0.933886 -1.460677 9.382129 -39.107717 -7.432561 -2.392262 19.011809 -6.099719 -43.549604 -59.784359 -51.227904 -114.581047 -133.954189 -146.864121 -0.000001 0.000002 -0.000003 128.445983 6.396761 -30.923500 -0.000003 0.000005 -3.000000 -5.000226 -7.998911 0.000142 3.893389 35.564938 -8.534502 -84.936865 182.012630 85.886986 -0.000001 0.000002 0.000009 40.608340 2.788196 1.780816 -0.000003 -0.000005 3.000098 -5.000250 7.998904 -0.000121 -6.662780 -177.377800 0.812449 -179.999991 0.000005 -0.821994 171.784080 -2.205159 -0.502313 0.000001 0.000002 -0.010360 67.486627 5.597346 5.454914 25.456960 -7.355616 0.000001 3.796000 174.182706 -2.673796 -0.000005 -0.000004 -1.063260 -14.794876 1.983995 0.654293 -0.000005 -0.000003 -0.512873 78.425817 -6.616324 -2.238399 26.181456 7.351609 -1.088646 
49.983501 7.496532 95.901398 -2.962625 2.698280 9.710583 -0.322006 -0.465561 -0.743732 3.352966 -0.934070 -1.485328 4.997912 -0.951796 -1.474038 9.157511 -39.342624 -7.506560 -2.237031 19.242306 -6.121705 -43.941851 -59.731077 -51.691585 -114.787353 -133.861722 -147.230096 -0.000001 -0.000000 -0.000003 128.669043 6.435469 -31.198088 -0.000003 0.000005 -3.000000 -5.000224 -7.998912 0.000140 4.057135 35.266200 -8.813214 -85.177097 182.651525 85.609687 -0.000001 0.000001 0.000007 39.275633 2.621900 1.858838 -0.000004 -0.000005 3.000097 -5.000253 7.998903 -0.000121 -6.653493 -177.406569 0.798341 -179.999991 0.000005 -0.823007 171.825471 -2.204400 -0.499582 0.000001 0.000002 -0.010928 67.477037 5.603474 5.439426 25.456959 -7.355616 0.000001 3.767880 174.154579 -2.686039 -0.000005 -0.000004 -1.061741 -14.817373 1.982485 0.655729 -0.000004 -0.000003 -0.513127 78.439723 -6.615992 -2.238551 26.179529 7.351565 -1.085873 
